<svg xmlns="http://www.w3.org/2000/svg" viewBox="0 0 36.54 36.54"><defs><style>.cls-1,.cls-4{fill:#014751;}.cls-2,.cls-3{fill:#fff;}.cls-3,.cls-4{fill-rule:evenodd;}</style></defs><g id="Layer_2" data-name="Layer 2"><g id="Capa_1" data-name="Capa 1"><path class="cls-1" d="M31.7,5.6,20.08,2.1V35.53l2.38.72a6.8,6.8,0,0,0,8.48-4.55l5.31-17.61A6.81,6.81,0,0,0,31.7,5.6Z"/><path class="cls-1" d="M16.5,1,14.09.29A6.83,6.83,0,0,0,5.6,4.85L.29,22.46a6.81,6.81,0,0,0,4.56,8.48l11.62,3.51V1Z"/><polygon class="cls-2" points="16.5 1.02 16.47 1.02 16.47 34.45 20.08 35.53 20.08 2.1 16.5 1.02"/><path class="cls-3" d="M28.4,18.25c0,5.26-3.39,10.54-10.1,10.54S8.14,23.51,8.14,18.25,11.48,7.75,18.3,7.75,28.4,13,28.4,18.25Z"/><path class="cls-4" d="M24.44,18.31c0,3.39-2.08,6.79-6.16,6.79s-6.18-3.4-6.18-6.79,2.05-6.86,6.18-6.86,6.16,3.41,6.16,6.86Z"/><circle class="cls-2" cx="18.27" cy="18.27" r="1.84"/></g></g></svg>