<svg xmlns="http://www.w3.org/2000/svg" viewBox="0 0 128.78 26.3"><defs><style>.cls-1,.cls-2{fill:#014751;}.cls-1,.cls-4{fill-rule:evenodd;}.cls-3,.cls-4{fill:#fff;}</style></defs><g id="Layer_2" data-name="Layer 2"><g id="Capa_1" data-name="Capa 1"><path class="cls-1" d="M36.58,12.35a5.39,5.39,0,0,0-2.15-.49,1.66,1.66,0,0,1-1.82-1.61,1.69,1.69,0,0,1,1.82-1.77A1.6,1.6,0,0,1,36.22,10a.2.2,0,0,0,.2.15H38.7c.13,0,.22-.09.2-.15a4.21,4.21,0,0,0-4.47-4.16,4.38,4.38,0,0,0-4.54,4.4,3.86,3.86,0,0,0,2.37,3.69,5.4,5.4,0,0,0,2.17.49,1.87,1.87,0,0,1,1.82,1.77,1.71,1.71,0,0,1-1.82,1.62h0v2.63h0A4.25,4.25,0,0,0,39,16.2a4.06,4.06,0,0,0-2.37-3.85Zm7.74-6.5H39.59a.19.19,0,0,0-.18.17V8.53h4.91c.33,0,2.15.1,2.15,1.7s-1.79,1.64-2.15,1.64H39.41v8.41a.19.19,0,0,0,.18.17H42a.17.17,0,0,0,.19-.17V14.57h2.17c.34,0,4.92-.05,4.92-4.34S44.9,5.85,44.32,5.85ZM58,8.64l-1.53,2.14L53,5.91a.3.3,0,0,0-.18-.06H50c-.2,0-.27.15-.18.28,1.77,2.48,3.58,5,5.33,7.46v6.69a.18.18,0,0,0,.2.17h2.39a.2.2,0,0,0,.2-.17V13.59l3.52-4.95Zm10.67,3.71a5.39,5.39,0,0,0-2.15-.49,1.67,1.67,0,0,1-1.83-1.61,1.69,1.69,0,0,1,1.83-1.77A1.6,1.6,0,0,1,68.33,10a.2.2,0,0,0,.2.15h2.28c.12,0,.22-.09.2-.15a4.21,4.21,0,0,0-4.47-4.16A4.38,4.38,0,0,0,62,10.25a3.86,3.86,0,0,0,2.37,3.69,5.4,5.4,0,0,0,2.17.49,1.87,1.87,0,0,1,1.82,1.77,1.71,1.71,0,0,1-1.82,1.62h0v2.63h0a4.25,4.25,0,0,0,4.52-4.25,4.06,4.06,0,0,0-2.37-3.85Zm11.22.84a1.37,1.37,0,1,0-1.37,1.37,1.37,1.37,0,0,0,1.37-1.37Zm5.66-.06c0,3.65-2.36,7.32-7,7.32s-7-3.67-7-7.32,2.32-7.28,7-7.28,7,3.65,7,7.28Zm-2.74.06c0,2.35-1.44,4.7-4.27,4.7s-4.29-2.35-4.29-4.7,1.43-4.76,4.29-4.76,4.27,2.37,4.27,4.76ZM94.6,17.77h0c-1.77.07-5.53-.11-5.53-4.62,0-3.47,2.35-4.8,5.53-4.63v3.23h2.79V6a.19.19,0,0,0-.2-.17H94.81c-3.57,0-8.55.82-8.55,7.3,0,6.24,4.92,7.3,8.55,7.3h2.38a.19.19,0,0,0,.2-.17V17.77Zm11.69,0h0c-1.77.07-5.53-.11-5.53-4.62,0-3.47,2.36-4.8,5.53-4.63v3.23h2.79V6a.18.18,0,0,0-.2-.17h-2.37c-3.58,0-8.56.82-8.56,7.3,0,6.24,4.93,7.3,8.56,7.3h2.37a.18.18,0,0,0,.2-.17V17.77Zm10.29,0h-4.14V14.45h5.73a.21.21,0,0,0,.2-.17V12a.18.18,0,0,0-.2-.16h-5.73V8.5h4.14V5.85h-6.73a.2.2,0,0,0-.2.17V20.28a.2.2,0,0,0,.2.17h6.73V17.73Zm12.19,2.48c-.92-2-1.9-4-2.81-6.09a3.86,3.86,0,0,0,2.68-3.92c0-4.31-4.11-4.35-4.93-4.35H119a.19.19,0,0,0-.18.17V8.5h4.9c.44,0,2.16.09,2.16,1.7s-1.56,1.67-2.16,1.67h-4.9v8.41a.19.19,0,0,0,.18.17h2.39a.2.2,0,0,0,.2-.17V14.56h1.57l2.66,5.78a.27.27,0,0,0,.18.11h2.61A.17.17,0,0,0,128.77,20.21Z"/><path class="cls-2" d="M22.81,4,14.45,1.51V25.57l1.71.52a4.91,4.91,0,0,0,6.11-3.28l3.82-12.67A4.91,4.91,0,0,0,22.81,4Z"/><path class="cls-2" d="M11.88.73,10.14.21A4.91,4.91,0,0,0,4,3.49L.21,16.16a4.91,4.91,0,0,0,3.28,6.11l8.36,2.52V.73Z"/><polygon class="cls-3" points="11.88 0.73 11.85 0.73 11.85 24.79 14.45 25.57 14.45 1.51 11.88 0.73"/><path class="cls-4" d="M20.44,13.13c0,3.79-2.44,7.59-7.27,7.59s-7.31-3.8-7.31-7.59,2.41-7.55,7.31-7.55,7.27,3.78,7.27,7.55Z"/><path class="cls-1" d="M17.59,13.18c0,2.44-1.5,4.88-4.43,4.88s-4.45-2.44-4.45-4.88,1.48-4.94,4.45-4.94,4.43,2.46,4.43,4.94Z"/><circle class="cls-3" cx="13.15" cy="13.15" r="1.32"/></g></g></svg>