<svg xmlns="http://www.w3.org/2000/svg" viewBox="0 0 148.85 33.26"><defs><style>.cls-1{fill:#014751;}.cls-2,.cls-3{fill:#fff;}.cls-2{fill-rule:evenodd;}</style></defs><g id="Layer_2" data-name="Layer 2"><g id="Capa_1" data-name="Capa 1"><rect class="cls-1" width="148.85" height="33.26"/><path class="cls-2" d="M12.75,15.47a7.74,7.74,0,0,0-3.1-.71A2.39,2.39,0,0,1,7,12.45,2.43,2.43,0,0,1,9.65,9.9a2.31,2.31,0,0,1,2.58,2.21.29.29,0,0,0,.29.21H15.8c.19,0,.32-.13.29-.21-.05-3.58-2.84-6-6.44-6A6.31,6.31,0,0,0,3.1,12.45a5.56,5.56,0,0,0,3.42,5.31,7.72,7.72,0,0,0,3.13.71A2.72,2.72,0,0,1,12.28,21a2.47,2.47,0,0,1-2.63,2.34h0v3.78h0C13,27.15,16.17,25,16.17,21a5.87,5.87,0,0,0-3.42-5.56ZM23.91,6.11H17.09a.28.28,0,0,0-.26.24V10h7.08c.47,0,3.1.13,3.1,2.44s-2.58,2.37-3.1,2.37H16.83V26.92a.28.28,0,0,0,.26.23h3.42a.24.24,0,0,0,.27-.23V18.68h3.13c.5,0,7.1-.07,7.1-6.26s-6.26-6.31-7.1-6.31Zm19.75,4-2.21,3.08-5-7a.45.45,0,0,0-.26-.08H32c-.29,0-.4.21-.27.39,2.55,3.58,5.16,7.16,7.68,10.76v9.66a.27.27,0,0,0,.29.23h3.45a.29.29,0,0,0,.29-.23V17.26l5.08-7.13Zm15.39,5.34a7.74,7.74,0,0,0-3.1-.71,2.39,2.39,0,0,1-2.63-2.31A2.43,2.43,0,0,1,56,9.9a2.3,2.3,0,0,1,2.57,2.21c0,.08.14.21.29.21H62.1c.19,0,.32-.13.29-.21,0-3.58-2.84-6-6.44-6a6.31,6.31,0,0,0-6.55,6.34,5.56,5.56,0,0,0,3.42,5.31,7.72,7.72,0,0,0,3.13.71A2.72,2.72,0,0,1,58.58,21,2.47,2.47,0,0,1,56,23.37h0v3.78h0c3.36,0,6.52-2.18,6.52-6.12a5.87,5.87,0,0,0-3.42-5.56Zm16.18,1.22a2,2,0,1,0-2,2,2,2,0,0,0,2-2Zm8.15-.08c0,5.26-3.39,10.54-10.1,10.54S63.13,21.87,63.13,16.61s3.34-10.5,10.15-10.5,10.1,5.26,10.1,10.5Zm-3.94.08c0,3.39-2.08,6.78-6.16,6.78s-6.18-3.39-6.18-6.78,2.05-6.87,6.18-6.87,6.16,3.42,6.16,6.87Zm17,6.6h0c-2.56.1-8-.16-8-6.66,0-5,3.4-6.92,8-6.68v4.66h4V6.35a.27.27,0,0,0-.29-.24H96.72c-5.15,0-12.34,1.18-12.34,10.52,0,9,7.11,10.52,12.34,10.52h3.42a.27.27,0,0,0,.29-.23V23.29Zm16.86,0h0c-2.55.1-8-.16-8-6.66,0-5,3.39-6.92,8-6.68v4.66h4V6.35a.26.26,0,0,0-.29-.24h-3.42c-5.15,0-12.33,1.18-12.33,10.52,0,9,7.1,10.52,12.33,10.52H117a.26.26,0,0,0,.29-.23V23.29Zm14.83-.05h-6V18.5h8.26a.29.29,0,0,0,.29-.24V14.92a.26.26,0,0,0-.29-.23h-8.26V9.92h6V6.11h-9.7a.29.29,0,0,0-.29.24V26.92a.29.29,0,0,0,.29.23h9.7V23.24Zm17.58,3.57c-1.32-2.92-2.74-5.81-4.05-8.78a5.58,5.58,0,0,0,3.86-5.66c0-6.21-5.92-6.26-7.1-6.26h-6.81a.29.29,0,0,0-.27.24V9.92h7.08c.63,0,3.1.14,3.1,2.45s-2.23,2.42-3.1,2.42h-7.08V26.92a.29.29,0,0,0,.27.23H135a.29.29,0,0,0,.29-.23V18.66h2.26L141.42,27c0,.08.18.15.26.15h3.76A.23.23,0,0,0,145.68,26.81Z"/><rect class="cls-3" x="71.55" y="23.53" width="3.61" height="9.73"/><rect class="cls-3" x="71.56" width="3.61" height="9.19"/></g></g></svg>